<svg width="0" height="0" class="hidden">
    <symbol fill="none" xmlns="http://www.w3.org/2000/svg" viewBox="0 0 24 44" id="radio_selected">
        <path d="M23.5 22C23.5 28.3513 18.3513 33.5 12 33.5C5.64873 33.5 0.5 28.3513 0.5 22C0.5 15.6487 5.64873 10.5 12 10.5C18.3513 10.5 23.5 15.6487 23.5 22Z" fill="white" stroke="#6D02A3"></path>
        <path fill-rule="evenodd" clip-rule="evenodd" d="M12 30C16.4183 30 20 26.4183 20 22C20 17.5817 16.4183 14 12 14C7.58172 14 4 17.5817 4 22C4 26.4183 7.58172 30 12 30Z" fill="#4E0174"></path>
    </symbol>
    <symbol fill="none" xmlns="http://www.w3.org/2000/svg" viewBox="0 0 24 24" id="success">
        <path fill-rule="evenodd" clip-rule="evenodd" d="M12 22C17.5228 22 22 17.5228 22 12C22 6.47715 17.5228 2 12 2C6.47715 2 2 6.47715 2 12C2 17.5228 6.47715 22 12 22ZM16.712 9.50858C16.9929 9.11535 16.9018 8.56887 16.5086 8.28798C16.1153 8.0071 15.5689 8.09818 15.288 8.49142L10.8883 14.6509L8.61872 12.3813C8.27701 12.0396 7.72299 12.0396 7.38128 12.3813C7.03957 12.723 7.03957 13.277 7.38128 13.6187L10.3813 16.6187C10.5632 16.8006 10.8158 16.8932 11.0722 16.872C11.3285 16.8508 11.5625 16.7179 11.712 16.5086L16.712 9.50858Z" fill="#018842"></path>
    </symbol>
    <symbol fill="none" xmlns="http://www.w3.org/2000/svg" viewBox="0 0 32 32" id="close">
        <path fill-rule="evenodd" clip-rule="evenodd" d="M25.6825 24.1506C25.9562 24.4243 26.063 24.8231 25.9629 25.1969C25.8627 25.5707 25.5707 25.8627 25.1969 25.9629C24.8231 26.063 24.4243 25.9562 24.1506 25.6825L16.2499 17.7818L8.34919 25.6825C8.07554 25.9562 7.67669 26.063 7.30288 25.9629C6.92907 25.8627 6.6371 25.5707 6.53693 25.1969C6.43677 24.8231 6.54364 24.4243 6.81729 24.1506L14.718 16.2499L6.81729 8.34919C6.54364 8.07554 6.43677 7.67669 6.53693 7.30288C6.6371 6.92907 6.92907 6.6371 7.30288 6.53693C7.67669 6.43677 8.07554 6.54364 8.34919 6.81729L16.2499 14.718L24.1506 6.81729C24.5736 6.39427 25.2595 6.39427 25.6825 6.81729C26.1055 7.24031 26.1055 7.92617 25.6825 8.34919L17.7818 16.2499L25.6825 24.1506Z" fill="#1E1E20"></path>
    </symbol>
    <symbol fill="none" xmlns="http://www.w3.org/2000/svg" viewBox="0 0 24 44" id="checkbox_checked">
        <path d="M0 12C0 10.8954 0.895431 10 2 10H22C23.1046 10 24 10.8954 24 12V32C24 33.1046 23.1046 34 22 34H2C0.89543 34 0 33.1046 0 32V12Z" fill="#4E0174"></path>
        <path fill-rule="evenodd" clip-rule="evenodd" d="M18.1615 16.7848C18.7385 17.2424 18.8353 18.0811 18.3777 18.658L11.4106 27.4425C10.8928 28.0955 9.92159 28.1513 9.33232 27.562L5.72353 23.9532C5.20283 23.4325 5.20283 22.5883 5.72353 22.0676C6.24423 21.5469 7.08845 21.5469 7.60915 22.0676L10.2084 24.6669L16.2883 17.001C16.7459 16.424 17.5846 16.3272 18.1615 16.7848Z" fill="white"></path>
    </symbol>
    <symbol fill="none" xmlns="http://www.w3.org/2000/svg" viewBox="0 0 24 44" id="checkbox">
        <path d="M0 12C0 10.8954 0.895431 10 2 10H22C23.1046 10 24 10.8954 24 12V32C24 33.1046 23.1046 34 22 34H2C0.89543 34 0 33.1046 0 32V12Z" fill="white"></path>
        <path d="M0.5 12C0.5 11.1716 1.17157 10.5 2 10.5H22C22.8284 10.5 23.5 11.1716 23.5 12V32C23.5 32.8284 22.8284 33.5 22 33.5H2C1.17157 33.5 0.5 32.8284 0.5 32V12Z" stroke="black" stroke-opacity="0.44"></path>
    </symbol>
    <symbol fill="none" xmlns="http://www.w3.org/2000/svg" viewBox="0 0 24 44" id="radio">
        <path d="M23.5 22C23.5 28.3513 18.3513 33.5 12 33.5C5.64873 33.5 0.5 28.3513 0.5 22C0.5 15.6487 5.64873 10.5 12 10.5C18.3513 10.5 23.5 15.6487 23.5 22Z" fill="white" stroke="#4E0174"></path>
    </symbol>
    <symbol fill="none" xmlns="http://www.w3.org/2000/svg" viewBox="0 0 24 24" id="error-filled">
        <path fill-rule="evenodd" clip-rule="evenodd" d="M13.7302 3.5C12.9604 2.16667 11.0359 2.16667 10.2661 3.5L1.60589 18.5C0.836094 19.8333 1.79834 21.5 3.33794 21.5H20.6585C22.1981 21.5 23.1603 19.8333 22.3905 18.5L13.7302 3.5ZM13.0358 8.56735L12.7893 15.443H11.2229L10.9763 8.56735C10.9554 7.98416 11.4225 7.5 12.0061 7.5C12.5896 7.5 13.0568 7.98416 13.0358 8.56735ZM13.2482 17.4841C13.2482 18.1328 12.6627 18.7183 11.9982 18.7183C11.3494 18.7183 10.7482 18.1328 10.7482 17.4841C10.7482 16.8512 11.3494 16.2499 11.9982 16.2499C12.6627 16.2499 13.2482 16.8512 13.2482 17.4841Z" fill="#E4175C"></path>
    </symbol>
    <symbol fill="none" xmlns="http://www.w3.org/2000/svg" viewBox="0 0 17 16" id="sorter">
        <path fill-rule="evenodd" clip-rule="evenodd" d="M12.0833 2.06641C12.2424 2.06641 12.3951 2.12962 12.5076 2.24214L15.5076 5.24214C15.7419 5.47646 15.7419 5.85635 15.5076 6.09067C15.2733 6.32498 14.8934 6.32498 14.6591 6.09067L12.6833 4.11493V13.3331C12.6833 13.6644 12.4147 13.9331 12.0833 13.9331C11.7519 13.9331 11.4833 13.6644 11.4833 13.3331V4.11493L9.50758 6.09067C9.27327 6.32498 8.89337 6.32498 8.65905 6.09067C8.42474 5.85636 8.42474 5.47646 8.65905 5.24214L11.6591 2.24214C11.7716 2.12962 11.9242 2.06641 12.0833 2.06641ZM5.41665 2.06641C5.74802 2.06641 6.01665 2.33504 6.01665 2.66641L6.01665 11.8845L7.99238 9.90881C8.2267 9.67449 8.6066 9.67449 8.84091 9.90881C9.07523 10.1431 9.07523 10.523 8.84091 10.7573L5.84091 13.7573C5.6066 13.9917 5.2267 13.9917 4.99239 13.7573L1.99239 10.7573C1.75807 10.523 1.75807 10.1431 1.99239 9.90881C2.2267 9.67449 2.6066 9.67449 2.84091 9.90881L4.81665 11.8845L4.81665 2.66641C4.81665 2.33504 5.08528 2.06641 5.41665 2.06641Z" fill="#6D02A3"></path>
    </symbol>
    <symbol fill="none" xmlns="http://www.w3.org/2000/svg" viewBox="0 0 17 16" id="filter">
        <path fill-rule="evenodd" clip-rule="evenodd" d="M4.86023 4.97241L2.41665 4.97241C2.08528 4.97241 1.81665 5.24104 1.81665 5.57241C1.81665 5.90378 2.08528 6.17241 2.41665 6.17241L4.83418 6.17241C5.08008 7.12981 5.94894 7.83737 6.98306 7.83737C8.01718 7.83737 8.88604 7.12982 9.13193 6.17241L15.0833 6.17241C15.4147 6.17241 15.6833 5.90378 15.6833 5.57241C15.6833 5.24104 15.4147 4.97241 15.0833 4.97241L9.10588 4.97241C8.82914 4.06251 7.98342 3.40039 6.98306 3.40039C5.98269 3.40039 5.13697 4.06251 4.86023 4.97241ZM5.96726 5.54429C5.96769 5.55361 5.9679 5.56299 5.9679 5.57241C5.9679 5.59351 5.96681 5.61435 5.96469 5.63489C5.97324 6.19 6.42591 6.63737 6.98306 6.63737C7.54442 6.63737 7.99971 6.18321 8.00154 5.62227C8.00019 5.60583 7.9995 5.5892 7.9995 5.57241C7.9995 5.56724 7.99956 5.56209 7.99969 5.55695C7.96769 5.02329 7.52476 4.60039 6.98306 4.60039C6.44564 4.60039 6.00545 5.01662 5.96726 5.54429ZM8.36803 10.3987H2.41665C2.08528 10.3987 1.81665 10.6673 1.81665 10.9987C1.81665 11.3301 2.08528 11.5987 2.41665 11.5987H8.39409C8.67082 12.5086 9.51654 13.1707 10.5169 13.1707C11.5173 13.1707 12.363 12.5086 12.6397 11.5987H15.0833C15.4147 11.5987 15.6833 11.3301 15.6833 10.9987C15.6833 10.6673 15.4147 10.3987 15.0833 10.3987H12.6658C12.4199 9.44128 11.551 8.73372 10.5169 8.73372C9.48279 8.73372 8.61393 9.44128 8.36803 10.3987ZM9.49843 10.9488C9.49978 10.9653 9.50047 10.9819 9.50047 10.9987C9.50047 11.0039 9.5004 11.009 9.50027 11.0141C9.53228 11.5478 9.97521 11.9707 10.5169 11.9707C11.0543 11.9707 11.4945 11.5545 11.5327 11.0268C11.5323 11.0175 11.5321 11.0081 11.5321 10.9987C11.5321 10.9776 11.5332 10.9567 11.5353 10.9362C11.5267 10.3811 11.0741 9.93372 10.5169 9.93372C9.95554 9.93372 9.50025 10.3879 9.49843 10.9488Z" fill="#6D02A3"></path>
    </symbol>
    <symbol fill="none" xmlns="http://www.w3.org/2000/svg" viewBox="0 0 20 20" id="chevron-up">
        <path fill-rule="evenodd" clip-rule="evenodd" d="M3.21967 13.4463C3.51256 13.7392 3.98744 13.7392 4.28033 13.4463L10 7.72668L15.7197 13.4463C16.0126 13.7392 16.4874 13.7392 16.7803 13.4463C17.0732 13.1535 17.0732 12.6786 16.7803 12.3857L10.5303 6.13569C10.2374 5.84279 9.76256 5.84279 9.46967 6.13569L3.21967 12.3857C2.92678 12.6786 2.92678 13.1535 3.21967 13.4463Z" fill="white"></path>
    </symbol>
    <symbol fill="none" xmlns="http://www.w3.org/2000/svg" viewBox="0 0 20 20" id="chevron-down">
        <path fill-rule="evenodd" clip-rule="evenodd" d="M16.7803 6.55365C16.4874 6.26076 16.0126 6.26076 15.7197 6.55365L10 12.2733L4.28033 6.55365C3.98744 6.26076 3.51256 6.26076 3.21967 6.55365C2.92678 6.84655 2.92678 7.32142 3.21967 7.61431L9.46967 13.8643C9.76256 14.1572 10.2374 14.1572 10.5303 13.8643L16.7803 7.61431C17.0732 7.32142 17.0732 6.84655 16.7803 6.55365Z" fill="white"></path>
    </symbol>
</svg>
