<svg width="0" height="0" class="hidden">
    <symbol fill="none" xmlns="http://www.w3.org/2000/svg" viewBox="0 0 24 24" id="success">
        <path fill-rule="evenodd" clip-rule="evenodd" d="M12 22C17.5228 22 22 17.5228 22 12C22 6.47715 17.5228 2 12 2C6.47715 2 2 6.47715 2 12C2 17.5228 6.47715 22 12 22ZM16.712 9.50858C16.9929 9.11535 16.9018 8.56887 16.5086 8.28798C16.1153 8.0071 15.5689 8.09818 15.288 8.49142L10.8883 14.6509L8.61872 12.3813C8.27701 12.0396 7.72299 12.0396 7.38128 12.3813C7.03957 12.723 7.03957 13.277 7.38128 13.6187L10.3813 16.6187C10.5632 16.8006 10.8158 16.8932 11.0722 16.872C11.3285 16.8508 11.5625 16.7179 11.712 16.5086L16.712 9.50858Z" fill="#018842"></path>
    </symbol>
    <symbol fill="none" xmlns="http://www.w3.org/2000/svg" viewBox="0 0 32 32" id="close">
        <path fill-rule="evenodd" clip-rule="evenodd" d="M25.6825 24.1506C25.9562 24.4243 26.063 24.8231 25.9629 25.1969C25.8627 25.5707 25.5707 25.8627 25.1969 25.9629C24.8231 26.063 24.4243 25.9562 24.1506 25.6825L16.2499 17.7818L8.34919 25.6825C8.07554 25.9562 7.67669 26.063 7.30288 25.9629C6.92907 25.8627 6.6371 25.5707 6.53693 25.1969C6.43677 24.8231 6.54364 24.4243 6.81729 24.1506L14.718 16.2499L6.81729 8.34919C6.54364 8.07554 6.43677 7.67669 6.53693 7.30288C6.6371 6.92907 6.92907 6.6371 7.30288 6.53693C7.67669 6.43677 8.07554 6.54364 8.34919 6.81729L16.2499 14.718L24.1506 6.81729C24.5736 6.39427 25.2595 6.39427 25.6825 6.81729C26.1055 7.24031 26.1055 7.92617 25.6825 8.34919L17.7818 16.2499L25.6825 24.1506Z" fill="#1E1E20"></path>
    </symbol>
    <symbol fill="none" xmlns="http://www.w3.org/2000/svg" viewBox="0 0 24 24" id="error-filled">
        <path fill-rule="evenodd" clip-rule="evenodd" d="M13.7302 3.5C12.9604 2.16667 11.0359 2.16667 10.2661 3.5L1.60589 18.5C0.836094 19.8333 1.79834 21.5 3.33794 21.5H20.6585C22.1981 21.5 23.1603 19.8333 22.3905 18.5L13.7302 3.5ZM13.0358 8.56735L12.7893 15.443H11.2229L10.9763 8.56735C10.9554 7.98416 11.4225 7.5 12.0061 7.5C12.5896 7.5 13.0568 7.98416 13.0358 8.56735ZM13.2482 17.4841C13.2482 18.1328 12.6627 18.7183 11.9982 18.7183C11.3494 18.7183 10.7482 18.1328 10.7482 17.4841C10.7482 16.8512 11.3494 16.2499 11.9982 16.2499C12.6627 16.2499 13.2482 16.8512 13.2482 17.4841Z" fill="#E4175C"></path>
    </symbol>
    <symbol fill="none" xmlns="http://www.w3.org/2000/svg" viewBox="0 0 17 16" id="sorter">
        <path fill-rule="evenodd" clip-rule="evenodd" d="M12.0833 2.06641C12.2424 2.06641 12.3951 2.12962 12.5076 2.24214L15.5076 5.24214C15.7419 5.47646 15.7419 5.85635 15.5076 6.09067C15.2733 6.32498 14.8934 6.32498 14.6591 6.09067L12.6833 4.11493V13.3331C12.6833 13.6644 12.4147 13.9331 12.0833 13.9331C11.7519 13.9331 11.4833 13.6644 11.4833 13.3331V4.11493L9.50758 6.09067C9.27327 6.32498 8.89337 6.32498 8.65905 6.09067C8.42474 5.85636 8.42474 5.47646 8.65905 5.24214L11.6591 2.24214C11.7716 2.12962 11.9242 2.06641 12.0833 2.06641ZM5.41665 2.06641C5.74802 2.06641 6.01665 2.33504 6.01665 2.66641L6.01665 11.8845L7.99238 9.90881C8.2267 9.67449 8.6066 9.67449 8.84091 9.90881C9.07523 10.1431 9.07523 10.523 8.84091 10.7573L5.84091 13.7573C5.6066 13.9917 5.2267 13.9917 4.99239 13.7573L1.99239 10.7573C1.75807 10.523 1.75807 10.1431 1.99239 9.90881C2.2267 9.67449 2.6066 9.67449 2.84091 9.90881L4.81665 11.8845L4.81665 2.66641C4.81665 2.33504 5.08528 2.06641 5.41665 2.06641Z" fill="#6D02A3"></path>
    </symbol>
    <symbol fill="none" xmlns="http://www.w3.org/2000/svg" viewBox="0 0 17 16" id="filter">
        <path fill-rule="evenodd" clip-rule="evenodd" d="M4.86023 4.97241L2.41665 4.97241C2.08528 4.97241 1.81665 5.24104 1.81665 5.57241C1.81665 5.90378 2.08528 6.17241 2.41665 6.17241L4.83418 6.17241C5.08008 7.12981 5.94894 7.83737 6.98306 7.83737C8.01718 7.83737 8.88604 7.12982 9.13193 6.17241L15.0833 6.17241C15.4147 6.17241 15.6833 5.90378 15.6833 5.57241C15.6833 5.24104 15.4147 4.97241 15.0833 4.97241L9.10588 4.97241C8.82914 4.06251 7.98342 3.40039 6.98306 3.40039C5.98269 3.40039 5.13697 4.06251 4.86023 4.97241ZM5.96726 5.54429C5.96769 5.55361 5.9679 5.56299 5.9679 5.57241C5.9679 5.59351 5.96681 5.61435 5.96469 5.63489C5.97324 6.19 6.42591 6.63737 6.98306 6.63737C7.54442 6.63737 7.99971 6.18321 8.00154 5.62227C8.00019 5.60583 7.9995 5.5892 7.9995 5.57241C7.9995 5.56724 7.99956 5.56209 7.99969 5.55695C7.96769 5.02329 7.52476 4.60039 6.98306 4.60039C6.44564 4.60039 6.00545 5.01662 5.96726 5.54429ZM8.36803 10.3987H2.41665C2.08528 10.3987 1.81665 10.6673 1.81665 10.9987C1.81665 11.3301 2.08528 11.5987 2.41665 11.5987H8.39409C8.67082 12.5086 9.51654 13.1707 10.5169 13.1707C11.5173 13.1707 12.363 12.5086 12.6397 11.5987H15.0833C15.4147 11.5987 15.6833 11.3301 15.6833 10.9987C15.6833 10.6673 15.4147 10.3987 15.0833 10.3987H12.6658C12.4199 9.44128 11.551 8.73372 10.5169 8.73372C9.48279 8.73372 8.61393 9.44128 8.36803 10.3987ZM9.49843 10.9488C9.49978 10.9653 9.50047 10.9819 9.50047 10.9987C9.50047 11.0039 9.5004 11.009 9.50027 11.0141C9.53228 11.5478 9.97521 11.9707 10.5169 11.9707C11.0543 11.9707 11.4945 11.5545 11.5327 11.0268C11.5323 11.0175 11.5321 11.0081 11.5321 10.9987C11.5321 10.9776 11.5332 10.9567 11.5353 10.9362C11.5267 10.3811 11.0741 9.93372 10.5169 9.93372C9.95554 9.93372 9.50025 10.3879 9.49843 10.9488Z" fill="#6D02A3"></path>
    </symbol>
    <symbol fill="none" xmlns="http://www.w3.org/2000/svg" viewBox="0 0 20 20" id="chevron-up">
        <path fill-rule="evenodd" clip-rule="evenodd" d="M3.21967 13.4463C3.51256 13.7392 3.98744 13.7392 4.28033 13.4463L10 7.72668L15.7197 13.4463C16.0126 13.7392 16.4874 13.7392 16.7803 13.4463C17.0732 13.1535 17.0732 12.6786 16.7803 12.3857L10.5303 6.13569C10.2374 5.84279 9.76256 5.84279 9.46967 6.13569L3.21967 12.3857C2.92678 12.6786 2.92678 13.1535 3.21967 13.4463Z" fill="white"></path>
    </symbol>
    <symbol fill="none" xmlns="http://www.w3.org/2000/svg" viewBox="0 0 20 20" id="chevron-down">
        <path fill-rule="evenodd" clip-rule="evenodd" d="M16.7803 6.55365C16.4874 6.26076 16.0126 6.26076 15.7197 6.55365L10 12.2733L4.28033 6.55365C3.98744 6.26076 3.51256 6.26076 3.21967 6.55365C2.92678 6.84655 2.92678 7.32142 3.21967 7.61431L9.46967 13.8643C9.76256 14.1572 10.2374 14.1572 10.5303 13.8643L16.7803 7.61431C17.0732 7.32142 17.0732 6.84655 16.7803 6.55365Z" fill="white"></path>
    </symbol>
        <symbol fill="none" xmlns="http://www.w3.org/2000/svg" viewBox="0 0 14 14" id="checkmark">
            <g opacity="0.5">
                <path fill-rule="evenodd" clip-rule="evenodd" d="M12.2847 2.21329C12.5118 2.39347 12.5499 2.72369 12.3698 2.95086L5.66143 11.4092C5.5684 11.5265 5.42971 11.5985 5.28024 11.6071C5.13076 11.6157 4.98473 11.5601 4.87887 11.4542L1.37887 7.95419C1.17384 7.74917 1.17384 7.41676 1.37887 7.21173C1.58389 7.00671 1.9163 7.00671 2.12133 7.21173L5.2048 10.2952L11.5471 2.2984C11.7273 2.07122 12.0575 2.03312 12.2847 2.21329Z" fill="black" fill-opacity="0.84"></path>
            </g>
        </symbol>
        <symbol fill="none" xmlns="http://www.w3.org/2000/svg" viewBox="0 0 16 16" id="arrow-right">
            <path fill-rule="evenodd" clip-rule="evenodd" d="M13.9333 7.99909C13.9333 8.15822 13.8701 8.31083 13.7576 8.42335L10.0909 12.09C9.85663 12.3243 9.47673 12.3243 9.24242 12.09C9.0081 11.8557 9.0081 11.4758 9.24242 11.2415L11.8848 8.59909L2.66668 8.59909C2.33531 8.59909 2.06668 8.33046 2.06668 7.99909C2.06668 7.66772 2.33531 7.39909 2.66668 7.39909L11.8848 7.39909L9.24242 4.75669C9.0081 4.52237 9.0081 4.14247 9.24242 3.90816C9.47673 3.67384 9.85663 3.67384 10.0909 3.90816L13.7576 7.57482C13.8701 7.68735 13.9333 7.83996 13.9333 7.99909Z" fill="white"></path>
        </symbol>
        <symbol fill="none" xmlns="http://www.w3.org/2000/svg" viewBox="0 0 16 16" id="triangle-err">
            <path fill-rule="evenodd" clip-rule="evenodd" d="M14.5653 10.9717L9.71444 2.88745C9.35322 2.28486 8.70223 1.91607 7.99967 1.91602C7.2971 1.91596 6.64606 2.28466 6.28475 2.8872L1.43392 10.9717C1.06324 11.5895 1.05352 12.359 1.40849 12.986C1.76346 13.613 2.42825 14.0007 3.14877 14.0007H12.8504C13.5709 14.0007 14.2357 13.613 14.5907 12.986C14.9457 12.359 14.936 11.5895 14.5653 10.9717ZM7.4996 9.24504V6.28997C7.49938 6.15567 7.52622 6.02271 7.57851 5.89902C7.62133 5.78814 7.68808 5.68807 7.77401 5.60596C7.83457 5.54334 7.91647 5.50577 8.00344 5.50074C8.12884 5.50074 8.25414 5.59587 8.37936 5.78614C8.44734 5.87002 8.48915 5.97204 8.4996 6.0795V9.03458C8.4996 9.14472 8.42312 9.24995 8.27017 9.35028C8.12468 9.44815 7.95332 9.50044 7.77798 9.50047C7.59261 9.50048 7.49982 9.41534 7.4996 9.24504ZM8.56002 10.9816C8.54307 10.8582 8.49375 10.7414 8.41708 10.6431C8.2767 10.4375 8.14132 10.3346 8.01092 10.3346C7.90973 10.3392 7.81414 10.3824 7.74374 10.4552C7.64806 10.547 7.57367 10.6587 7.52578 10.7824C7.46831 10.9193 7.43886 11.0664 7.43917 11.2149C7.43917 11.4054 7.54446 11.5007 7.75503 11.5007C7.95037 11.5008 8.14137 11.4432 8.30413 11.3351C8.47472 11.2247 8.56002 11.1068 8.56002 10.9816Z" fill="#BE0040"></path>
        </symbol>
</svg>
